<mxfile host="app.diagrams.net" modified="2023-11-15T10:08:48.666Z" agent="Mozilla/5.0 (Macintosh; Intel Mac OS X 10_15_7) AppleWebKit/537.36 (KHTML, like Gecko) Chrome/119.0.0.0 Safari/537.36" etag="Ogs0QH86Xgm6FYJnlj7D" version="22.1.1" type="github">
  <diagram name="Page-1" id="vcGkg43yraG6zcTBp-iL">
    <mxGraphModel dx="1026" dy="623" grid="1" gridSize="10" guides="1" tooltips="1" connect="1" arrows="1" fold="1" page="1" pageScale="1" pageWidth="827" pageHeight="1169" math="0" shadow="0">
      <root>
        <mxCell id="0" />
        <mxCell id="1" parent="0" />
        <mxCell id="pWwtbhAFx1E4Xy6fi4eO-2" style="edgeStyle=orthogonalEdgeStyle;rounded=0;orthogonalLoop=1;jettySize=auto;html=1;fillColor=#f8cecc;strokeColor=#b85450;" edge="1" parent="1" source="pWwtbhAFx1E4Xy6fi4eO-1">
          <mxGeometry relative="1" as="geometry">
            <mxPoint x="400" y="195" as="targetPoint" />
          </mxGeometry>
        </mxCell>
        <mxCell id="pWwtbhAFx1E4Xy6fi4eO-1" value="" style="shape=document;whiteSpace=wrap;html=1;boundedLbl=1;" vertex="1" parent="1">
          <mxGeometry x="70" y="140" width="260" height="110" as="geometry" />
        </mxCell>
        <mxCell id="pWwtbhAFx1E4Xy6fi4eO-3" value="Vertical Container" style="swimlane;whiteSpace=wrap;html=1;fillColor=#d5e8d4;strokeColor=#82b366;" vertex="1" parent="1">
          <mxGeometry x="400" y="120" width="200" height="200" as="geometry" />
        </mxCell>
      </root>
    </mxGraphModel>
  </diagram>
</mxfile>
